<?xml version="1.0" encoding="utf-8"?>
<!-- Generator: Adobe Illustrator 21.1.0, SVG Export Plug-In . SVG Version: 6.00 Build 0)  -->
<svg version="1.1" id="Layer_1" xmlns="http://www.w3.org/2000/svg" xmlns:xlink="http://www.w3.org/1999/xlink" x="0px" y="0px"
	 viewBox="0 0 400 400" style="enable-background:new 0 0 400 400;" xml:space="preserve">
<style type="text/css">
	.st0{fill:#404041;}
	.st1{fill:none;stroke:#510114;stroke-width:2;stroke-miterlimit:10;}
</style>
<path class="st0" d="M353.7,278.4c-10.1-11.1-72.7-94.5-92.7-100.6c-23-7.1-82.8,21.9-82.8,21.9s-3.8-8.3-3.4-15.1
	c0.4-6.8,9.7-12.9,8.6-20.6c-1.1-7.7-7.5-17.9-7.5-17.9c21.9-4.9,55.3-15.4,72.6-30.5c17.2-15.1,27.7-53.2,30.9-60.3
	c1.8-4,4.5-5.6,6.7-6.6c1.3-1.9,3.3-3.5,5.5-4.6c-0.4-0.3-0.8-0.6-1.1-0.9c-0.3-3-2.5-7.2-9.6-12.4c-3.3-2.4-6.3-3.2-8.8-2.7
	c-0.7,1.3-1.7,2.5-2.9,3.5c-1.3,1.1-2.7,1.9-4.2,2.6c-1.7,3.1-3.1,7.1-3.9,11.7c-2.5,13.9-10.4,30.2-25.9,46.8
	c-15.5,16.6-36.3,24.6-65.4,31.1c-29.1,6.5-34.9-1.5-34.9-1.5s2.2-4,10.1-3.4c7.9,0.6,22.6-4,26.9-11.1c4.3-7.1,2.2-20,2.2-20h4.2
	c0,0,3.8-3.3-0.5-17.6c-4.3-14.4-42.2-14.8-49.3-15.2c-7.2-0.4-7.2-11.1-18.7-11.5C98.2,42.8,88.2,60,86.3,76.1
	c-1.9,16,3.4,22.2,13.4,21.3c10.1-0.8,10.1-15.6,11.5-9.8c1.4,5.7,2.4,24.6-2.9,29.1c-5.3,4.5-10.1-6.2-31.6-2.1
	c-3.7,0.7-6.2,2.1-7.9,3.9c-0.6,0.6-1,1.3-1.4,2c-4.7,6.7-19.7,28.2-26.1,39.2c-1.5,2.5-10.9,29.6-8.6,34.9
	c3.8,9,51.7,54.2,62.3,63.2c6.3,5.4,16.2,5.2,22.9,3.9c4.4,1.8,8.9,3.4,13.4,4.8c12.4,12.4,30.7,16.8,55.2,11.8
	c6.5-1.3,12.6-3.1,18.2-5.1c21.8-7.2,26.9-11.4,36.8-15.6c-2.8,15.7-8.3,49.6-9,54.7c-1,7.4-10.5,19.7-16.8,25
	c-6.2,5.3,4.8,12.7,9.1,20.9c4.3,8.2,0,30,0,30c-1.2,7.9,2.5,10.7,10.8,0c8.3-10.7,13.3-46.8,15.5-55.2c3-11.4,8.3-19.1,15.1-43.1
	c6.8-24,10.8-44.3,19-44.9c8.3-0.6,15.5,8.9,24.1,19.4c8.6,10.5-0.7,19.4,7.2,24.3c7.9,4.9,20.8,0.6,27.3,4.6
	c6.5,4,19,24.3,22.3,19.1C369.2,307.3,363.8,289.4,353.7,278.4z M115.8,239.4c0,0-10.8-8.6-24.3-21.3
	c-13.4-12.7-25.4-29.1-28.3-38.6c-2-6.7,7.5-16.3,13.7-22.3c4.5,9.3,5.3,4,20.3,27.7C109.8,204.6,109.9,221.2,115.8,239.4
	L115.8,239.4z"/>
<ellipse class="st1" cx="192.8" cy="141.9" rx="142.8" ry="132.7"/>
</svg>
